<svg width="47" height="46" viewBox="0 0 47 46" fill="none" xmlns="http://www.w3.org/2000/svg">
<path d="M39.9354 6.31453C37.219 3.57861 33.7994 1.63348 30.0479 0.690273C26.3061 -0.265601 22.3769 -0.228126 18.6542 0.798991C14.7954 1.85089 11.2876 3.90229 8.49055 6.74297L6.87356 8.35021C3.98905 11.1435 1.90139 14.6453 0.822824 18.4993C-0.228514 22.1861 -0.273177 26.084 0.693502 29.7935C1.70195 33.5084 3.67522 36.8955 6.41605 39.616C9.15687 42.3365 12.5692 44.2952 16.3118 45.2962C20.0516 46.2687 23.9854 46.2311 27.7057 45.1874C31.589 44.1171 35.1175 42.0452 37.9327 39.1825L39.552 37.5753C42.4132 34.7984 44.4792 31.3164 45.5381 27.486C46.5743 23.7911 46.6121 19.8906 45.6477 16.1766C44.6872 12.4329 42.7116 9.02203 39.9354 6.31453V6.31453ZM38.5934 21.5627C36.9951 24.6258 34.9169 27.4177 32.4363 29.8338L30.1357 32.1174C27.6951 34.5859 24.8764 36.6555 21.7841 38.2495C19.245 39.6309 16.4276 40.433 13.5368 40.5973C12.4429 40.7246 11.3341 40.6044 10.2937 40.2456C9.25333 39.8869 8.30832 39.299 7.52953 38.5259C6.75074 37.7529 6.1584 36.8149 5.79699 35.7822C5.43557 34.7496 5.31447 33.6491 5.44272 32.5633C5.60944 29.6941 6.41748 26.8977 7.8081 24.377C9.41523 21.3084 11.5006 18.5111 13.9871 16.0885L16.2877 13.8049C18.7198 11.3426 21.5302 9.279 24.614 7.69123C27.1481 6.32306 29.9561 5.52906 32.8362 5.36627C33.9304 5.23855 35.0396 5.35855 36.0805 5.71725C37.1213 6.07595 38.0668 6.66401 38.8459 7.43732C39.6249 8.21064 40.2174 9.14908 40.5788 10.1822C40.9402 11.2154 41.0611 12.3163 40.9324 13.4025C40.7684 16.2592 39.9692 19.0444 38.5923 21.5583L38.5934 21.5627Z" fill="#E1FD2C"/>
</svg>
