<svg width="173" height="152" viewBox="0 0 173 152" fill="none" xmlns="http://www.w3.org/2000/svg">
<g clip-path="url(#clip0_1_706)">
<path d="M125.08 97.9314C116.289 101.829 107.247 105.138 98.0139 107.839C88.701 110.611 79.2166 112.776 69.621 114.32C61.5478 115.662 53.3771 116.338 45.1923 116.34C41.878 116.325 38.5676 116.108 35.28 115.689C32.5886 115.357 29.9344 114.773 27.3522 113.947C25.3504 113.325 23.4628 112.384 21.7628 111.161C20.4516 110.224 19.4284 108.942 18.8083 107.458C18.7784 107.381 18.7501 107.304 18.7237 107.226L7.61939 78.7776L37.656 68.8703L39.0969 82.9119C44.0431 80.0057 49.1529 77.3851 54.401 75.0633C63.1922 71.1667 72.2339 67.8572 81.4662 65.1567C90.7795 62.3835 100.264 60.2181 109.861 58.6743C111.877 58.3548 113.856 58.0722 115.797 57.8264L111.687 54.5177L147.458 33.0905L160.589 65.3036L160.579 65.3102C160.611 65.3841 160.642 65.4587 160.671 65.5338C161.206 66.9778 161.285 68.5506 160.898 70.0409C160.401 71.9088 159.551 73.6655 158.395 75.2172C156.906 77.2568 155.201 79.1305 153.309 80.8056C150.97 82.8968 148.491 84.8258 145.888 86.5792C145.242 87.0195 144.582 87.4582 143.906 87.8955C137.896 91.7127 131.602 95.0677 125.08 97.9314V97.9314Z" fill="#BBD4D0" stroke="#4F2479" stroke-width="1.99975"/>
<path d="M83.3791 74.0808C73.8112 77.1782 64.3671 79.6752 55.3091 81.5026C46.5716 83.2652 38.5625 84.3333 31.5042 84.677C24.4943 85.0183 18.7926 84.6289 14.5575 83.5195C12.4716 82.9731 10.7823 82.2545 9.53627 81.3839C8.33415 80.5439 7.54116 79.5548 7.17933 78.4441C6.8172 77.3325 6.87624 76.0663 7.35481 74.6805C7.85081 73.2443 8.79583 71.6711 10.1637 70.0045C12.9406 66.6211 17.3303 62.9603 23.2109 59.1239C29.132 55.2609 36.25 51.4271 44.3671 47.7289C52.7827 43.8948 61.9048 40.3773 71.4802 37.2742L71.5619 37.2477C81.1298 34.1503 90.5739 31.6532 99.6319 29.8259C108.369 28.0632 116.379 26.9952 123.437 26.6515C130.447 26.3101 136.148 26.6996 140.383 27.809C142.469 28.3554 144.159 29.0739 145.405 29.9446C146.607 30.7846 147.4 31.7737 147.762 32.8843C148.124 33.9959 148.065 35.2622 147.586 36.6479C147.09 38.0841 146.145 39.6574 144.777 41.3239C142 44.7073 137.611 48.3681 131.73 52.2046C125.809 56.0676 118.691 59.9014 110.574 63.5995C102.158 67.4337 93.0362 70.9512 83.4608 74.0543L83.3791 74.0808Z" fill="#BBD4D0"/>
<path d="M71.8098 38.1449L71.7687 38.1582C62.2271 41.2504 53.1384 44.7548 44.755 48.5743C36.6805 52.2531 29.6039 56.0641 23.7219 59.9016C18.0029 63.6327 13.5642 67.3298 10.8859 70.593C9.16048 72.6952 7.2708 75.714 8.06671 78.1572C8.86177 80.5977 12.1643 81.9314 14.7947 82.6205C18.8791 83.6905 24.6414 84.0805 31.4587 83.7485C38.4701 83.4071 46.4322 82.3449 55.1239 80.5915C64.1472 78.7712 73.5566 76.2832 83.0907 73.1967L83.1311 73.1836L83.1722 73.1703C92.7139 70.0781 101.803 66.5736 110.186 62.7542C118.26 59.0754 125.337 55.2644 131.219 51.4269C136.938 47.6958 141.377 43.9987 144.055 40.7355C145.78 38.6333 147.67 35.6145 146.874 33.1713C146.079 30.7308 142.777 29.3971 140.146 28.708C136.062 27.638 130.3 27.248 123.482 27.5799C116.471 27.9214 108.509 28.9836 99.8171 30.737C90.7938 32.5573 81.3844 35.0453 71.8502 38.1318L71.8098 38.1449ZM71.2736 36.3636C110.552 23.6479 145.184 21.9598 148.649 32.5974C152.117 43.2421 123.06 62.1988 83.7494 74.9383C83.723 74.9468 83.6937 74.9563 83.6673 74.9649C44.3889 87.6806 9.7573 89.3687 6.29189 78.7311C2.82413 68.0864 31.8807 49.1297 71.1916 36.3902C71.218 36.3817 71.2472 36.3722 71.2736 36.3636Z" fill="#4F2479"/>
</g>
<defs>
<clipPath id="clip0_1_706">
<rect width="173" height="152" fill="white"/>
</clipPath>
</defs>
</svg>
