<svg width="96" height="108" viewBox="0 0 96 108" fill="none" xmlns="http://www.w3.org/2000/svg">
<path d="M79.2962 53.2756C75.9455 58.2497 72.2681 62.9946 68.2881 67.4788C64.29 72.0281 59.9999 76.3111 55.445 80.3006C51.6267 83.6799 47.5364 86.7376 43.2156 89.4425C41.4604 90.5301 39.6401 91.5087 37.7651 92.3728C36.2332 93.0849 34.6379 93.6516 33.0003 94.0654C31.7372 94.3963 30.429 94.5203 29.126 94.4328C28.1241 94.3682 27.1598 94.0252 26.341 93.4423C26.1547 93.3021 25.9802 93.147 25.8191 92.9783L10.1508 80.2766L23.2482 65.5442L30.3511 71.0315C31.5435 68.9111 32.8936 66.7213 34.3961 64.4744C37.7469 59.499 41.4248 54.7529 45.4051 50.2676C49.4036 45.7184 53.6939 41.4355 58.2489 37.4461C59.1957 36.6211 60.1364 35.8269 61.0712 35.0636L58.6821 34.6857L71.2703 11.9113L86.9465 24.0361C87.0872 24.1189 87.2232 24.2094 87.3538 24.3073C88.1158 24.8968 88.6797 25.7056 88.9701 26.625C89.3266 27.7818 89.4604 28.9957 89.3643 30.202C89.2538 31.7775 88.9743 33.3363 88.5307 34.8515C87.9884 36.7352 87.3182 38.5795 86.5247 40.3714C86.0326 41.5007 85.4864 42.6557 84.8861 43.8362C83.2103 47.0906 81.3437 50.2425 79.2962 53.2756V53.2756Z" fill="#F6A0A9" stroke="#16774A" stroke-width="1.99998"/>
<path d="M49.4267 54.0228C45.2403 58.6819 40.9331 62.9767 36.6248 66.788C32.4706 70.463 28.4922 73.5343 24.8004 75.9167C21.1406 78.2783 17.9589 79.8376 15.3437 80.5512C14.0659 80.8999 12.9487 81.0349 12.023 80.9523C11.1465 80.8741 10.44 80.5978 9.92323 80.1309C9.406 79.6636 9.05819 78.987 8.88942 78.1197C8.71121 77.2037 8.72901 76.0737 8.94234 74.7611C9.37893 72.0748 10.596 68.7348 12.5598 64.8337C14.5408 60.8983 17.1758 56.6055 20.3914 52.0745C23.7266 47.3752 27.5416 42.6273 31.7302 37.9628L31.766 37.9229C35.9524 33.2639 40.2596 28.969 44.5679 25.1578C48.7222 21.4828 52.7005 18.4115 56.3923 16.0291C60.0521 13.6675 63.2337 12.1082 65.849 11.3946C67.1267 11.0459 68.244 10.911 69.1697 10.9935C70.0462 11.0717 70.7526 11.348 71.2694 11.8149C71.7867 12.2822 72.1345 12.9588 72.3032 13.8261C72.4815 14.7421 72.4637 15.8721 72.2503 17.1847C71.8137 19.871 70.5967 23.211 68.6329 27.1121C66.6519 31.0475 64.0169 35.3403 60.8013 39.8713C57.4661 44.5706 53.6511 49.3185 49.4625 53.983L49.4267 54.0228Z" fill="#F6A0A9"/>
<path d="M32.2965 38.4373L32.2785 38.4573C28.1085 43.1009 24.3114 47.8266 20.9924 52.5031C17.7982 57.0039 15.1825 61.2646 13.2182 65.1669C11.3155 68.9466 10.0886 72.3055 9.67012 74.8805C9.40976 76.4825 9.32791 78.5986 10.4167 79.5822C11.5041 80.5645 13.5907 80.2636 15.1496 79.8382C17.6563 79.1542 20.8554 77.5833 24.4011 75.2952C28.0619 72.933 32.0103 69.8843 36.1368 66.2338C40.4241 62.4411 44.7111 58.1663 48.8788 53.5281L48.8964 53.5085L48.9144 53.4884C53.0843 48.8448 56.8815 44.1192 60.2004 39.4427C63.3947 34.9419 66.0103 30.6812 67.9747 26.7789C69.8773 22.9992 71.1042 19.6403 71.5227 17.0653C71.7831 15.4633 71.8649 13.3472 70.7762 12.3636C69.6888 11.3813 67.6022 11.6822 66.0432 12.1076C63.5365 12.7916 60.3374 14.3626 56.7917 16.6506C53.131 19.0128 49.1825 22.0615 45.056 25.712C40.7687 29.5047 36.4817 33.7795 32.3141 38.4177L32.2965 38.4373ZM31.2183 37.4284C48.4206 18.2838 66.5665 6.57304 71.7623 11.2668C76.9615 15.9637 67.2229 35.3098 50.0105 54.4774C49.9989 54.4903 49.9861 54.5046 49.9746 54.5174C32.7722 73.662 14.6263 85.3728 9.43054 80.679C4.23128 75.9821 13.9699 56.636 31.1823 37.4684C31.1939 37.4555 31.2067 37.4412 31.2183 37.4284Z" fill="#16774A"/>
</svg>
